<svg xmlns="http://www.w3.org/2000/svg" width="53.118" height="73.219" viewBox="0 0 53.118 73.219">
  <path d="M34.138,14.879c4.783,1.3,8.522,6.529,9.455,13.212M34.138,1.5c10,1.553,17.906,12.58,19.03,26.558M50.774,54.749V64.783a8.119,8.119,0,0,1-1.551,4.957,4.035,4.035,0,0,1-3.667,1.733A39.766,39.766,0,0,1,24.9,61.2,59.769,59.769,0,0,1,10.536,41.136a84.528,84.528,0,0,1-7.349-29A8.492,8.492,0,0,1,4.419,7.024a4.324,4.324,0,0,1,3.531-2.18h7.181c2.4-.033,4.451,2.428,4.787,5.753A57.376,57.376,0,0,0,21.595,20a8.712,8.712,0,0,1-1.077,7.057L17.478,31.3c3.408,8.374,8.369,15.307,14.362,20.069l3.04-4.248c1.329-1.836,3.3-2.424,5.051-1.505a23.911,23.911,0,0,0,6.726,2.341C49.064,48.434,50.834,51.353,50.774,54.749Z" transform="translate(-1.666 0.212)" fill="none" stroke="#fff" stroke-linecap="round" stroke-linejoin="round" stroke-width="3"/>
</svg>